:SAMPLES-PER-SECOND 30
:FULLY-SPECIFIED
:DEGREES
317
root  34.81294827 36.50252275 -14.91801194 8.235881805 -4.283167362 3.957676411
lowerback  -7.890990257 -0.8400600553 -0.425538063
upperback  -3.670730114 -0.6712560058 -3.166670084
thorax  0.5968520045 -0.1948869973 -3.082849979
lowerneck  -14.01039982 2.1307199 1.869590044
upperneck  17.57640076 2.080670118 4.290550232
head  7.712590218 1.695930004 1.349660039
lclavicle  0 -4.497500157e-015 -2.743230041e-014
lhumerus  -47.94889832 27.85409927 65.4489975
lradius  5.228657756e-007 -6.507048965e-006 31.77029991
lwrist  4.824992743e-007 -3.790274832e-007 -24.97750092
lhand  -4.403357898e-031 -36.68650055 -10.5717001
lfingers  90 7.125020027 -90
lthumb  94.69450592 -25.41686336 100.8314207
rclavicle  0 -4.497500157e-015 -2.743230041e-014
rhumerus  -61.6344986 -23.63240051 -39.05369949
rradius  -5.16745672e-007 2.214343908e-008 91.66629791
rwrist  -0.0001064338358 0.02974390797 179.1329956
rhand  -1.773769959e-031 5.51391983 -5.793630123
rfingers  -90 -7.125020027 -90
rthumb  -83.89505489 -10.09180537 -58.60045054
rfemur  -12.35060596 15.93200684 12.921175
rtibia  -1.589422941 -0.9403245449 21.60056877
rfoot  -0.1677695662 -21.66714859 -36.67758942
rtoes  3.940523329 19.62356788 -101.5911419
lfemur  -7.839289665 -17.6145134 -20.81147385
ltibia  2.78937006 -1.072718382 14.61748123
lfoot  0.993758738 -23.44615555 37.550457
ltoes  -8.603310072 -18.12379643 -115.9367771
318
root  34.80984245 36.50309045 -14.91323756 8.234250069 -4.220832825 3.932357788
lowerback  -7.997159958 -0.8281630874 -0.438337028
upperback  -3.58852005 -0.6559069753 -3.155019999
thorax  0.7415379882 -0.1883299947 -3.064069986
lowerneck  -14.10519981 2.206640005 1.933009982
upperneck  17.53590012 2.164819956 4.285210133
head  7.71833849 1.737369299 1.347120285
lclavicle  0 -4.497500157e-015 -2.743230041e-014
lhumerus  -47.79550171 27.9375 65.51450348
lradius  5.228657756e-007 -6.507048965e-006 31.71829987
lwrist  4.824992743e-007 -3.790274832e-007 -25.13999939
lhand  -4.402115997e-031 -36.66479874 -10.54539967
lfingers  90 7.125020027 -90
lthumb  94.67896641 -25.39185482 100.8059479
rclavicle  0 -4.497500157e-015 -2.743230041e-014
rhumerus  -61.47219849 -23.95289993 -39.75429916
rradius  -5.16745672e-007 2.214343908e-008 90.87960052
rwrist  -0.0001064338358 0.02974390797 -179.9290009
rhand  -1.774179408e-031 5.649240017 -5.99710989
rfingers  -90 -7.125020027 -90
rthumb  -83.96727148 -9.925472596 -58.48667683
rfemur  -12.29567337 15.93583298 12.94853306
rtibia  -1.564677835 -0.9401786923 21.53449059
rfoot  -0.1666368395 -21.68530846 -36.75929642
rtoes  3.945538642 19.6225983 -101.6060759
lfemur  -7.819187164 -17.58651543 -20.7799511
ltibia  2.79188776 -1.033241987 14.59799957
lfoot  0.974809885 -23.50957108 37.47507095
ltoes  -8.591107507 -18.12943191 -115.8975555
319
root  34.80864998 36.50267594 -14.90926968 8.205581665 -4.192175865 3.909590721
lowerback  -7.906699657 -0.8155229688 -0.4818959534
upperback  -3.664829969 -0.635577023 -3.136460066
thorax  0.6146680117 -0.1765349954 -3.016930103
lowerneck  -14.05869961 2.259370089 2.000260115
upperneck  17.57250023 2.228440046 4.291999817
head  7.724585056 1.774874091 1.341806531
lclavicle  0 -4.497500157e-015 -2.743230041e-014
lhumerus  -47.87350082 27.9340992 65.47039795
lradius  5.228657756e-007 -6.507048965e-006 31.69479942
lwrist  4.824992743e-007 -3.790274832e-007 -25.2826004
lhand  -4.402070398e-031 -36.66400146 -10.57660007
lfingers  90 7.125020027 -90
lthumb  94.6850571 -25.42246548 100.8078674
rclavicle  0 -4.497500157e-015 -2.743230041e-014
rhumerus  -61.42720032 -24.01380157 -40.43959808
rradius  -5.16745672e-007 2.214343908e-008 90.13749695
rwrist  -0.0001064338358 0.02974390797 -179.3269958
rhand  -0 5.635829926 -6.110290051
rfingers  -90 -7.125020027 -90
rthumb  -84.03078347 -9.82823646 -58.51001535
rfemur  -12.22027111 15.95170307 12.97924614
rtibia  -1.540995359 -0.9130138755 21.47314072
rfoot  -0.1399674267 -21.64667511 -36.78617859
rtoes  3.930171541 19.62556507 -101.5603198
lfemur  -7.780453682 -17.55941391 -20.75938416
ltibia  2.786397696 -1.014279127 14.59488964
lfoot  0.9593424797 -23.547472 37.4240303
ltoes  -8.581263807 -18.13397072 -115.8659243
320
root  34.80689282 36.50458929 -14.90496388 8.219285965 -4.173013687 3.900309324
lowerback  -7.799619675 -0.8003349304 -0.501072228
upperback  -3.710580111 -0.6172689795 -3.112920046
thorax  0.509781003 -0.1673509926 -2.978620052
lowerneck  -14.00319958 2.321579933 2.103090048
upperneck  17.56290054 2.308399916 4.225790024
head  7.708159924 1.813840032 1.313949943
lclavicle  0 -4.497500157e-015 -2.743230041e-014
lhumerus  -47.91680145 27.83209991 65.53299713
lradius  5.228657756e-007 -6.507048965e-006 31.71789932
lwrist  4.824992743e-007 -3.790274832e-007 -25.13369942
lhand  -4.401235534e-031 -36.6493988 -10.56459999
lfingers  90 7.125020027 -90
lthumb  94.67577023 -25.41123837 100.791198
rclavicle  0 -4.497500157e-015 -2.743230041e-014
rhumerus  -61.33229828 -24.11120033 -41.14709854
rradius  -5.16745672e-007 2.214343908e-008 89.29869843
rwrist  -0.0001064338358 0.02974390797 -178.9519958
rhand  -1.774082282e-031 5.617440224 -6.201179981
rfingers  -90 -7.125020027 -90
rthumb  -84.08371726 -9.749719881 -58.53626483
rfemur  -12.23134613 15.9273901 12.99236679
rtibia  -1.538474083 -0.9047480226 21.47171211
rfoot  -0.1377956718 -21.63471603 -36.78287506
rtoes  3.957488705 19.62028286 -101.6416624
lfemur  -7.814548969 -17.54650497 -20.73616028
ltibia  2.768402815 -1.016378522 14.62704372
lfoot  0.9423719049 -23.55079651 37.36083221
ltoes  -8.55641599 -18.14539887 -115.7861137
